<?xml version="1.0" encoding="UTF-8" standalone="no"?>
<svg
   xmlns:dc="http://purl.org/dc/elements/1.1/"
   xmlns:cc="http://creativecommons.org/ns#"
   xmlns:rdf="http://www.w3.org/1999/02/22-rdf-syntax-ns#"
   xmlns:svg="http://www.w3.org/2000/svg"
   xmlns="http://www.w3.org/2000/svg"
   viewBox="0 0 713.28748 844.6875"
   height="844.6875"
   width="713.28748"
   xml:space="preserve"
   version="1.1"
   id="svg2"><metadata
     id="metadata8"><rdf:RDF><cc:Work
         rdf:about=""><dc:format>image/svg+xml</dc:format><dc:type
           rdf:resource="http://purl.org/dc/dcmitype/StillImage" /></cc:Work></rdf:RDF></metadata><defs
     id="defs6" /><g
     transform="matrix(1.25,0,0,-1.25,0,844.6875)"
     id="g10"><g
       transform="scale(0.1,0.1)"
       id="g12"><path
         id="path14"
         style="fill:#231f20;fill-opacity:1;fill-rule:nonzero;stroke:none"
         d="m 1888.72,4258.89 c -110,70 -80,120 -30,110 50,-10 100,-70 150,-70 50,0 120,-40 120,-40 -40,-30 -130,-70 -240,0 z m 680,100 c 20,-50 -60,-80 -170,-50 -110,30 -360,100 -750,130 -390,30 -200,-50 0,-160 200,-110 300,-150 460,-150 160,0 540,29.5 540,130 0,80 -100,150 -80,100 z m 1280,130 c -250,-80 -330,-10 -330,-10 0,0 60,80 90,90 30,10 160,-70 230,30 70,100 70,100 70,100 l 180,90 c 0,-70 10,-220 -240,-300 z m -240,180 c -210,-170 -480,-430 -560,-400 -80,30 -185.11,5.11 -70,-110 60,-60 230,30 610,190 380,160 680,160 690,230 10,70 184.92,264.92 350,430 230,230 -810,-170 -1020,-340 z m 1460,900 c -320,-180 -610,-400 -330,-330 280,70 400,180 300,-40 -100,-220 -210,-670 -580,-980 -370,-310 -580,-570 -120,-240 460,330 730,700 690,520 -40,-180 -70,-740 -370,-970 -300,-230 -750,-490 -980,-560 -230,-70 -50,-90 260,-10 310,80 130,-90 -80,-150 -210,-60 260,-90 440,-20 180,70 150,-40 -30,-200 -180,-160 -500,-310 -260,-280 240,30 370,70 180,-110 -190,-180 -420,-330 -600,-420 -180,-90 -220,-140 70,-70 290,70 610,180 360,30 -250,-150 -720,-380 -380,-310 340,70 470,100 360,0 -110,-100 -340,-519.999 -460,-469.999 -120,49.999 -570,279.999 -330,209.999 240,-70 510,-20 230,90 -280,110 -480,320 -540,390 -60,70 60,50 220,80 160,30 240,30 110,90 -130,60 -260,150 40,150 300,0 380,50 490,100 110,50 140,0 -210,80 -350,80 -650,200 -430,190 220,-10 420,40 560,80 140,40 -30,50 -260,120 -230,70 -530,160 -530,190 0,30 160,100 210,140 50,40 -230,-40 -580,130 -350,170 -440,260 140,160 580,-100 940,-40 1050,-40 110,0 -190,60 -730,190 -540,130 -430,170 -10,220 420,50 680,290 790,350 110,60 -30,10 -570,-20 -540,-30 -1010,-30 -1370,130 -360,160 -570,440 -660,520 -90,80 310,80 470,80 160,0 690,0 -60,140 -750.005,140 -1350.005,530 -870.005,430 480.005,-100 1510.005,-40 1920.005,10 410,50 560,80 -90,100 -650,20 -1140,90 -1440,140 -300.005,50 -180.005,150 320,300 500,150 1360,310 1910,310 550,0 1190,60 410,130 -780,70 -1410,40 -2190,-110 -780.005,-150 430,250 1070,320 640,70 1600,100 2270,-100 248.77,-74.26 520,-40 60,-190 -460,-150 -1250,-350 -1580,-390 -330,-40 -50,-210 400,-170 450,40 1180,200 1390,250 210,50 240,-10 -80,-190 z m -930,-4989.999 c 0,-60 110,-190 110,-190 0,0 -250,80 -360,110 -110,30 -140,-20 -120,140 20,160 20,180 -90,170 -110,-10 370,419.999 300,249.999 -36.13,-87.718 -80,-279.999 30,-259.999 110,20 130,-160 130,-220 z m 1560,5529.999 c 80,300 -479.18,434.56 -1360,590 -340,60 -2160,230 -3650.005,-540 -933.86,-482.6 -700.0002,-780 -540,-870 160,-90 80,-230 90,-340 10,-110 150,-120 510,-340 360.005,-220 400.005,-330 450.005,-530 50,-200 280,-290 610,-490 330,-200 180,-270 0,-250 -180,20 40,-180 220,-310 180,-130 390,-220 350,-330 -40,-110 -60,-260 50,-260 110,0 140,20 170,-30 30,-50 -30,-220 100,-350 130,-130 160,-110 90,-190 -70,-80 -180,-70 -160,-180 20,-110 180,-270 200,-330 20,-60 -60,-20 -30,-100 30,-80 170,-240 340,-369.999 170,-130 220,-150 200,-210 -20,-60 -60,-50 20,-120 80,-70 300,-180 450,-220 150,-40 180,10 190,-90 10,-100 130,-180.0004 290,-210.0004 160,-29.99997 240,-70 180,0 -60,70.0004 -60,160.0004 -80,300.0004 -20,140 10,190 -70,210 -80,20 -50,100 -30,160 20,60 60,260 -20,309.999 -80,50 -180,130 -130,190 50,60 110,240 90,280 -20,40 0,120 140,170 140,50 170,160 40,310 -130,150 40,200 100,300 60,100 50,180 -30,260 -80,80 80,120 220,210 140,90 290,310 230,360 -60,50 -160,150 -110,180 50,30 350,330 390,430 40,100 -10,270 -60,390 -50,120 40,210 150,350 110,140 150,480 150,590 0,110 -100,60 -50,200 50,140 -90,230 10,340 100,110 210,230 290,530" /></g></g></svg>