<?xml version="1.0" encoding="UTF-8" standalone="no"?>
<!-- Created with Inkscape (http://www.inkscape.org/) -->

<svg
   xmlns:dc="http://purl.org/dc/elements/1.1/"
   xmlns:cc="http://creativecommons.org/ns#"
   xmlns:rdf="http://www.w3.org/1999/02/22-rdf-syntax-ns#"
   xmlns:svg="http://www.w3.org/2000/svg"
   xmlns="http://www.w3.org/2000/svg"
   xmlns:sodipodi="http://sodipodi.sourceforge.net/DTD/sodipodi-0.dtd"
   xmlns:inkscape="http://www.inkscape.org/namespaces/inkscape"
   width="210mm"
   height="297mm"
   viewBox="0 0 210 297"
   version="1.1"
   id="svg8"
   inkscape:version="0.92.4 (5da689c313, 2019-01-14)"
   sodipodi:docname="OzSec 2019CTF.svg">
  <defs
     id="defs2" />
  <sodipodi:namedview
     id="base"
     pagecolor="#ffffff"
     bordercolor="#666666"
     borderopacity="1.0"
     inkscape:pageopacity="0.0"
     inkscape:pageshadow="2"
     inkscape:zoom="0.35"
     inkscape:cx="-438.57143"
     inkscape:cy="674.28572"
     inkscape:document-units="mm"
     inkscape:current-layer="layer1"
     showgrid="false"
     inkscape:window-width="2560"
     inkscape:window-height="1035"
     inkscape:window-x="0"
     inkscape:window-y="1"
     inkscape:window-maximized="1" />
  <metadata
     id="metadata5">
    <rdf:RDF>
      <cc:Work
         rdf:about="">
        <dc:format>image/svg+xml</dc:format>
        <dc:type
           rdf:resource="http://purl.org/dc/dcmitype/StillImage" />
        <dc:title />
      </cc:Work>
    </rdf:RDF>
  </metadata>
  <g
     inkscape:label="Layer 1"
     inkscape:groupmode="layer"
     id="layer1">
    <path
       style="fill:#000000;stroke-width:0.35277778"
       d="m 139.62478,183.96508 c -0.12494,-0.32558 -0.22716,-1.45509 -0.22716,-2.51002 0,-1.18504 -0.35322,-2.89295 -0.92428,-4.46906 -0.50835,-1.40306 -1.36065,-3.82101 -1.89399,-5.37324 l -0.96972,-2.82222 -3.30948,-2.21992 c -1.82021,-1.22096 -3.57656,-2.37174 -3.90299,-2.55729 -0.5008,-0.28466 -0.85904,0.16832 -2.29306,2.89946 -0.93475,1.78025 -2.21601,3.78725 -2.84727,4.45999 l -1.14773,1.22317 -2.74001,-0.22851 c -1.50701,-0.12568 -3.98106,-0.46596 -5.49789,-0.75617 -4.96802,-0.95054 -5.18421,-0.87603 -7.42953,2.5607 -0.70341,1.07666 -1.39171,1.71644 -1.92862,1.79268 -0.82004,0.11645 -0.83036,0.082 -0.58072,-1.94028 0.28732,-2.32753 1.54539,-8.56647 1.81557,-9.00362 0.36835,-0.596 1.48397,-0.246 3.01301,0.94526 1.48483,1.15682 1.85082,1.26379 5.96692,1.744 2.41179,0.28137 4.74225,0.61842 5.17882,0.74901 0.58213,0.17413 0.79375,0.0927 0.79375,-0.30545 0,-0.29858 0.64677,-1.80433 1.43728,-3.34612 l 1.43728,-2.80324 -0.90811,-0.97988 c -1.13009,-1.21938 -1.18643,-2.95857 -0.19801,-6.11174 0.92479,-2.95022 0.88419,-4.74108 -0.17849,-7.87228 -0.48371,-1.42529 -0.88059,-2.63112 -0.88194,-2.67963 -0.001,-0.0485 -0.28232,-0.0882 -0.62438,-0.0882 -0.34205,0 -2.31954,1.62718 -4.39442,3.61597 l -3.77251,3.61597 -0.47481,3.79144 -0.47482,3.79144 1.51785,1.36391 c 1.25159,1.12465 1.51785,1.5853 1.51785,2.62593 0,1.36202 -0.59399,2.04752 -1.09237,1.26067 -0.22747,-0.35912 -0.30935,-0.27435 -0.31334,0.32442 -0.005,0.76945 -0.11669,0.80525 -2.19841,0.70555 -2.13711,-0.10235 -2.20131,-0.1341 -2.51881,-1.24577 -0.25019,-0.87597 -0.15857,-1.61293 0.39474,-3.175 0.5082,-1.43475 0.76854,-3.24672 0.88339,-6.1484 0.13268,-3.35249 0.2977,-4.33236 0.89136,-5.29292 0.71598,-1.15848 4.80499,-5.25691 8.45292,-8.47239 2.35893,-2.07929 2.23794,-2.75805 -0.49161,-2.75805 -6.82802,0 -10.77332,-7.6502 -6.93582,-13.44904 3.47617,-5.25286 11.34641,-4.96178 14.73573,0.54499 0.92983,1.51073 1.06725,2.06054 1.05813,4.23333 -0.0118,2.80794 -0.73973,4.58527 -2.60304,6.35547 -1.07798,1.02412 -1.35446,2.05868 -0.78859,2.95082 0.16019,0.25255 1.86432,1.18123 3.78696,2.06373 5.79585,2.66033 4.9101,2.61299 8.54518,0.4566 2.97996,-1.76777 3.22129,-1.99636 3.43346,-3.25219 0.12552,-0.74292 0.52431,-1.62662 0.8862,-1.96377 0.40911,-0.38115 0.58562,-0.88972 0.46667,-1.3446 -0.17959,-0.68674 -0.55186,-0.56194 -6.07189,2.03554 -3.23432,1.52193 -6.15518,2.77008 -6.4908,2.77368 -0.94893,0.0102 -3.37219,-1.05427 -3.56927,-1.56785 -0.0974,-0.25369 0.30735,-0.91604 0.89934,-1.4719 1.67465,-1.57243 2.7435,-4.17127 2.74754,-6.68043 0.007,-4.20899 -1.92108,-7.42864 -5.49512,-9.17725 -6.19498,-3.03093 -13.53866,1.08198 -14.15964,7.93025 -0.47252,5.21101 2.61889,9.40008 7.94849,10.77074 l 1.51945,0.39077 -3.2622,2.99292 c -3.19341,2.92981 -3.34074,3.01723 -6.9875,4.14599 -2.04892,0.63419 -8.24969,2.35111 -13.77949,3.81537 -27.23956,7.21292 -30.96943,8.2924 -40.39305,11.69033 -6.98924,2.52015 -14.13666,5.58467 -19.09608,8.18762 l -3.22108,1.69058 -2.37994,-8.15321 c -1.30897,-4.48426 -5.29259,-18.23383 -8.85249,-30.5546 l -6.47254,-22.40139 0.78467,-0.60465 c 1.27099,-0.97941 11.07198,-5.76184 14.89579,-7.26846 15.27643,-6.019093 27.68195,-8.447753 58.03194,-11.361073 11.736058,-1.12655 17.67514,-1.80039 23.45973,-2.6617 5.86037,-0.87259 11.46528,-1.98054 11.46528,-2.2664 0,-0.14816 -0.23812,-0.46701 -0.52916,-0.70855 -0.73423,-0.60935 -0.66082,-1.31583 0.18368,-1.76779 0.90305,-0.4833 1.40382,-0.17914 1.40382,0.85269 0,0.44393 0.31056,1.16523 0.69015,1.60289 0.37958,0.43766 0.87681,1.37476 1.10496,2.08245 1.8634,5.78012 8.43071,23.208733 13.35885,35.452343 1.78433,4.43305 3.29742,8.32243 3.36242,8.64306 0.26852,1.32454 0.90727,2.55198 1.22564,2.35522 0.47725,-0.29496 1.71381,1.0265 1.9899,2.12651 0.12755,0.50818 0.0389,1.27592 -0.19846,1.7195 -0.37675,0.70395 -0.0176,1.86324 2.95354,9.53511 1.86034,4.80356 3.38244,8.77781 3.38244,8.83168 0,0.0539 -0.3093,0.17883 -0.68734,0.27768 -0.72121,0.18861 -0.73572,0.15594 -6.04852,-13.61985 -1.3213,-3.42605 -1.55072,-3.80031 -2.21957,-3.62079 -0.41028,0.11012 -0.98748,0.20239 -1.28268,0.20504 -0.2952,0.003 -1.57345,0.75888 -2.84056,1.68051 -1.26712,0.92163 -3.13305,2.0619 -4.14651,2.53393 -1.80165,0.83912 -1.88253,0.84548 -3.63328,0.28562 -1.67431,-0.53543 -1.77766,-0.53389 -1.59121,0.0237 0.10967,0.32798 0.62503,1.78695 1.14524,3.24216 1.23435,3.45289 1.33027,7.17786 0.24654,9.57424 l -0.7402,1.63675 1.39438,0.54772 c 1.51344,0.5945 6.5287,4.08049 7.62679,5.30123 0.6563,0.72959 1.86764,4.28409 3.08265,9.04562 0.32182,1.26118 0.75521,2.49882 0.96308,2.75031 0.27228,0.32942 1.29374,0.42805 3.6535,0.35278 5.61824,-0.17921 5.2607,1.09834 -1.20228,4.29599 -4.2774,2.11631 -5.51266,2.45512 -5.84009,1.60184 z"
       id="path1036"
       inkscape:connector-curvature="0" />
    <text
       xml:space="preserve"
       style="font-style:normal;font-weight:normal;font-size:16.88332558000000105px;line-height:1.25;font-family:sans-serif;letter-spacing:0px;word-spacing:0px;fill:#ffd5d5;fill-opacity:1;stroke:none;stroke-width:0.42208311;"
       x="34.640587"
       y="116.57464"
       id="text1128"
       transform="scale(0.99380325,1.0062354)"><tspan
         sodipodi:role="line"
         id="tspan1126"
         x="34.640587"
         y="116.57464"
         style="font-style:normal;font-variant:normal;font-weight:normal;font-stretch:normal;font-family:'Bauhaus 93';-inkscape-font-specification:'Bauhaus 93, ';fill:#ffd5d5;stroke-width:0.42208311;">OZ SEC</tspan><tspan
         sodipodi:role="line"
         x="34.640587"
         y="137.7951"
         style="font-style:normal;font-variant:normal;font-weight:normal;font-stretch:normal;font-family:'Bauhaus 93';-inkscape-font-specification:'Bauhaus 93, ';fill:#ffd5d5;stroke-width:0.42208311;"
         id="tspan1130">2019 CTF</tspan></text>
  </g>
</svg>
